<svg width="205" height="19" viewBox="0 0 205 19" fill="none" xmlns="http://www.w3.org/2000/svg">
<g clip-path="url(#clip0_36_258)">
<rect width="39" height="19" fill="white"/>
<path d="M0 0H9.24675V19H0V0ZM29.7532 0H39V19H29.7532V0ZM18.2174 3.95401L19.5376 1.24117L20.8479 3.85522C21.011 4.13132 21.144 4.10852 21.4051 3.9768L22.532 3.41448L21.7991 7.06452C21.646 7.78136 22.0501 7.9916 22.4894 7.50527L24.0958 5.7727L24.5225 6.75297C24.6655 7.04933 24.8814 7.00627 25.1675 6.95307L26.8266 6.60099L26.2694 8.71604V8.76163C26.2041 9.03773 26.0736 9.26823 26.3798 9.40248L26.9697 9.69884L23.536 12.6194C23.1872 12.9816 23.3076 13.0931 23.4382 13.5009L23.7544 14.4811L20.5642 13.8985C20.1702 13.7998 19.8966 13.7998 19.8865 14.1189L20.0171 17.812H19.0582L19.1888 14.129C19.1888 13.7668 18.9152 13.777 18.2701 13.9112L15.3109 14.4837L15.6924 13.5034C15.8229 13.1285 15.858 12.8752 15.5618 12.6219L12.0755 9.7419L12.7206 9.34422C12.9063 9.19984 12.9163 9.04786 12.8184 8.72617L12.1633 6.58579L13.845 6.94801C14.3144 7.05946 14.4449 6.94801 14.5654 6.69471L15.0348 5.72457L16.6964 7.59899C16.99 7.95107 17.4067 7.72057 17.2762 7.21397L16.478 3.25743L17.7129 3.97427C17.9087 4.09585 18.117 4.12878 18.2375 3.89828" fill="#FF0000"/>
<path d="M61.8522 7.93253H60.9872L60.7822 7.02503C60.0572 7.84753 59.3997 8.11753 58.4572 8.11753C56.1447 8.11753 54.7597 6.28003 54.7597 4.07503C54.7597 1.87003 56.1447 0.0300293 58.4572 0.0300293C60.1447 0.0300293 61.5597 0.927529 61.7647 2.66753H60.4472C60.3172 1.65253 59.4322 1.13253 58.4472 1.13253C56.7922 1.13253 56.1022 2.59253 56.1022 4.07253C56.1022 5.55253 56.7947 7.01253 58.4472 7.01253C59.8297 7.03253 60.5872 6.20253 60.6097 4.89253H58.5572V3.86753H61.8522V7.93253ZM65.7097 7.11003C64.6072 7.11003 64.1197 6.11003 64.1197 5.13253C64.1197 4.15503 64.6072 3.16503 65.7097 3.16503C66.8122 3.16503 67.2997 4.16503 67.2997 5.13253C67.2997 6.10003 66.8122 7.11003 65.7097 7.11003ZM65.7097 8.08253C67.5047 8.08253 68.5322 6.85003 68.5322 5.13253C68.5322 3.41503 67.5022 2.19253 65.7097 2.19253C63.9172 2.19253 62.8872 3.42503 62.8872 5.13253C62.8872 6.84003 63.9147 8.08503 65.7097 8.08503V8.08253ZM69.0022 2.34503H70.3422L71.7522 6.63503H71.7747L73.1372 2.34253H74.4122L72.4122 7.93003H71.0297L69.0022 2.34503ZM76.1297 4.64503C76.127 4.45078 76.1631 4.25795 76.236 4.07784C76.3088 3.89773 76.4168 3.73396 76.5537 3.59612C76.6906 3.45829 76.8536 3.34916 77.0332 3.27514C77.2128 3.20111 77.4054 3.16368 77.5997 3.16503C78.4322 3.16503 78.9622 3.86753 79.0047 4.64503H76.1297ZM80.2372 5.45753C80.4422 3.78253 79.3622 2.19253 77.5997 2.19253C75.9347 2.19253 74.8972 3.55503 74.8972 5.14253C74.8972 6.86003 75.8822 8.08253 77.6322 8.08253C78.8547 8.08253 79.8822 7.40253 80.1622 6.18003H79.0022C78.7847 6.79753 78.3547 7.11003 77.6397 7.11003C76.6122 7.11003 76.1397 6.33253 76.1397 5.45503L80.2372 5.45753ZM81.1772 2.34503H82.3347V3.42503H82.3572C82.4724 3.07837 82.6901 2.77488 82.9817 2.55478C83.2732 2.33468 83.6247 2.20835 83.9897 2.19253C84.1453 2.19096 84.3008 2.20183 84.4547 2.22503V3.41503C84.2793 3.38601 84.1023 3.36764 83.9247 3.36003C83.0822 3.36003 82.4122 4.04003 82.4122 5.27253V7.93253H81.1772V2.34503ZM84.9822 2.34503H86.1497V3.16753L86.1722 3.19003C86.3492 2.88334 86.6045 2.62916 86.912 2.45346C87.2195 2.27777 87.5681 2.18686 87.9222 2.19003C89.1322 2.19003 89.8997 2.83753 89.8997 4.09253V7.93253H88.6672V4.42003C88.6447 3.54503 88.2997 3.17003 87.5747 3.17003C86.7522 3.17003 86.2222 3.81753 86.2222 4.64003V7.93253H84.9897V2.34503H84.9822ZM91.1872 2.34503H92.3547V3.12253H92.3872C92.5597 2.8241 92.8115 2.57925 93.1147 2.4151C93.4178 2.25096 93.7605 2.17392 94.1047 2.19253C94.7847 2.19253 95.4247 2.48503 95.6722 3.12253C95.8592 2.83004 96.1186 2.59077 96.4251 2.42785C96.7317 2.26493 97.0751 2.18388 97.4222 2.19253C98.5997 2.19253 99.2922 2.71253 99.2922 4.07253V7.93253H98.0597V4.66753C98.0597 3.78003 98.0047 3.16753 97.0447 3.16753C96.2122 3.16753 95.8547 3.72003 95.8547 4.66753V7.94253H94.6222V4.34503C94.6222 3.57753 94.3722 3.16753 93.6397 3.16753C93.0022 3.16753 92.4172 3.68753 92.4172 4.61503V7.93253H91.1847V2.34503H91.1872ZM101.555 4.64503C101.552 4.45078 101.588 4.25795 101.661 4.07784C101.734 3.89773 101.842 3.73396 101.979 3.59612C102.116 3.45829 102.279 3.34916 102.458 3.27514C102.638 3.20111 102.83 3.16368 103.025 3.16503C103.857 3.16503 104.387 3.86753 104.43 4.64503H101.555ZM105.662 5.45753C105.867 3.78253 104.787 2.19253 103.025 2.19253C101.36 2.19253 100.322 3.55503 100.322 5.14253C100.322 6.86003 101.305 8.08253 103.057 8.08253C104.28 8.08253 105.307 7.40253 105.587 6.18003H104.42C104.205 6.79753 103.772 7.11003 103.057 7.11003C102.03 7.11003 101.557 6.33253 101.557 5.45503L105.662 5.45753ZM106.602 2.34503H107.77V3.16753L107.792 3.19003C107.969 2.88334 108.225 2.62916 108.532 2.45346C108.839 2.27777 109.188 2.18686 109.542 2.19003C110.752 2.19003 111.52 2.83753 111.52 4.09253V7.93253H110.277V4.42003C110.255 3.54503 109.91 3.17003 109.185 3.17003C108.362 3.17003 107.832 3.81753 107.832 4.64003V7.93253H106.602V2.34503ZM112.252 2.34503H113.18V0.667529H114.412V2.34253H115.525V3.26253H114.412V6.25003C114.412 6.75003 114.455 7.01753 115.007 7.01753C115.182 7.02461 115.356 7.00949 115.527 6.97253V7.92503C115.257 7.94503 114.997 7.99003 114.727 7.99003C113.44 7.99003 113.202 7.49003 113.18 6.56253V3.26253H112.252V2.34503ZM57.5022 17.92C56.3997 17.92 55.9122 16.92 55.9122 15.9425C55.9122 14.965 56.4022 13.975 57.5022 13.975C58.6022 13.975 59.0922 14.975 59.0922 15.9425C59.0922 16.91 58.6097 17.92 57.5022 17.92ZM57.5022 18.8925C59.2972 18.8925 60.3222 17.66 60.3222 15.9425C60.3222 14.225 59.2997 13 57.5022 13C55.7047 13 54.6797 14.2325 54.6797 15.94C54.6797 17.6475 55.7097 18.8925 57.5022 18.8925ZM60.8022 13.1525H61.7197V12.69C61.7197 11.2625 62.4697 11.025 63.2647 11.025C63.555 11.0137 63.8456 11.0389 64.1297 11.1V12.0625C63.9428 12.0144 63.7501 11.9925 63.5572 11.9975C63.2222 11.9975 62.9522 12.1175 62.9522 12.58V13.1525H64.0022V14.0725H62.9522V18.75H61.7197V14.0725H60.8022V13.1525ZM73.1472 13.4775C72.9197 12.59 72.3472 11.9425 71.2222 11.9425C69.5672 11.9425 68.8772 13.4025 68.8772 14.8825C68.8772 16.3625 69.5697 17.8225 71.2222 17.8225C72.4222 17.8225 73.0822 16.925 73.1897 15.8H74.5022C74.3947 17.6475 73.0872 18.925 71.2172 18.925C68.9047 18.925 67.5197 17.0875 67.5197 14.8825C67.5197 12.6775 68.9047 10.84 71.2172 10.84C72.9672 10.84 74.3297 11.8125 74.4922 13.4775H73.1422H73.1472ZM79.0172 16.8625C79.0172 17.64 78.1747 17.9225 77.6322 17.9225C77.1997 17.9225 76.4972 17.76 76.4972 17.21C76.4972 16.5625 76.9722 16.3675 77.4972 16.28C78.0222 16.1925 78.6322 16.1925 79.0097 15.945L79.0172 16.8625ZM80.2497 14.6125C80.2497 13.435 79.1047 12.9925 77.9997 12.9925C76.7672 12.9925 75.5447 13.415 75.4597 14.8525H76.6922C76.7522 14.25 77.2522 13.975 77.9347 13.975C78.4347 13.975 79.0922 14.095 79.0922 14.725C79.0922 15.45 78.3022 15.3525 77.4172 15.515C76.3797 15.6325 75.2672 15.86 75.2672 17.265C75.2672 18.3575 76.1747 18.8975 77.1797 18.8975C77.8865 18.9172 78.5756 18.675 79.1147 18.2175C79.2122 18.7175 79.5697 18.8975 80.0647 18.8975C80.3288 18.8843 80.5901 18.8373 80.8422 18.7575V17.9C80.7421 17.9152 80.6409 17.9219 80.5397 17.92C80.3122 17.92 80.2472 17.8025 80.2472 17.4975L80.2497 14.6125ZM81.5772 13.1525H82.7522V13.975L82.7747 13.9975C82.9517 13.6908 83.207 13.4367 83.5145 13.261C83.822 13.0853 84.1706 12.9944 84.5247 12.9975C85.7347 12.9975 86.5022 13.645 86.5022 14.9V18.75H85.2522V15.23C85.2297 14.355 84.8847 13.98 84.1597 13.98C83.3372 13.98 82.8072 14.6275 82.8072 15.45V18.75H81.5772V13.1525ZM91.2297 16.8625C91.2297 17.64 90.3872 17.9225 89.8472 17.9225C89.4147 17.9225 88.7122 17.76 88.7122 17.21C88.7122 16.5625 89.1872 16.3675 89.7122 16.28C90.2372 16.1925 90.8472 16.1925 91.2247 15.945L91.2297 16.8625ZM92.4622 14.6125C92.4622 13.435 91.3172 12.9925 90.2122 12.9925C88.9797 12.9925 87.7597 13.415 87.6722 14.8525H88.9047C88.9597 14.2475 89.4447 13.9675 90.1372 13.9675C90.6372 13.9675 91.2947 14.0875 91.2947 14.7175C91.2947 15.4425 90.5047 15.345 89.6197 15.5075C88.5822 15.625 87.4697 15.8525 87.4697 17.2575C87.4697 18.35 88.3772 18.89 89.3822 18.89C90.089 18.9097 90.7781 18.6675 91.3172 18.21C91.4147 18.71 91.7722 18.89 92.2672 18.89C92.5313 18.8768 92.7926 18.8298 93.0447 18.75V17.9C92.9446 17.9152 92.8434 17.9219 92.7422 17.92C92.5147 17.92 92.4497 17.8025 92.4497 17.4975L92.4622 14.6125ZM94.7522 16C94.7522 15 95.1622 13.9675 96.3197 13.9675C97.2697 13.9675 97.8647 14.7025 97.8647 15.935C97.8647 16.9075 97.3997 17.9125 96.2972 17.9125C95.1947 17.9125 94.7522 16.97 94.7522 16ZM99.0572 11.025H97.8247V13.8775H97.8022C97.4247 13.2625 96.6447 13.0025 95.9422 13.0025C94.7197 13.0025 93.5222 13.8875 93.5222 15.91C93.5222 17.585 94.3747 18.8925 96.1372 18.8925C96.8397 18.8925 97.5422 18.6225 97.8672 17.985H97.8897V18.735H99.0572V11.025ZM103.845 16.8625C103.845 17.64 103.002 17.9225 102.46 17.9225C102.027 17.9225 101.325 17.76 101.325 17.21C101.325 16.5625 101.8 16.3675 102.325 16.28C102.85 16.1925 103.46 16.1925 103.837 15.945L103.845 16.8625ZM105.077 14.6125C105.077 13.435 103.932 12.9925 102.827 12.9925C101.595 12.9925 100.372 13.415 100.287 14.8525H101.52C101.575 14.2475 102.06 13.9675 102.752 13.9675C103.252 13.9675 103.91 14.0875 103.91 14.7175C103.91 15.4425 103.12 15.345 102.235 15.5075C101.197 15.625 100.085 15.8525 100.085 17.2575C100.085 18.35 100.992 18.89 101.997 18.89C102.704 18.9099 103.393 18.6677 103.932 18.21C104.03 18.71 104.387 18.89 104.882 18.89C105.146 18.8768 105.408 18.8298 105.66 18.75V17.9C105.56 17.9152 105.458 17.9219 105.357 17.92C105.13 17.92 105.065 17.8025 105.065 17.4975L105.077 14.6125Z" fill="black"/>
<path d="M138.865 8.0001H137.998L137.793 7.0926C137.068 7.9151 136.41 8.1851 135.468 8.1851C133.155 8.1851 131.77 6.3476 131.77 4.1426C131.77 1.9376 133.158 0.100098 135.47 0.100098C137.158 0.100098 138.573 1.0001 138.778 2.7501H137.46C137.33 1.7351 136.445 1.2151 135.46 1.2151C133.805 1.2151 133.115 2.6751 133.115 4.1551C133.115 5.6351 133.808 7.0951 135.46 7.0951C136.843 7.1176 137.6 6.2851 137.623 4.9776H135.57V3.9376H138.855V8.0001H138.865ZM142.723 7.1801C141.62 7.1801 141.133 6.1801 141.133 5.2026C141.133 4.2251 141.62 3.2351 142.723 3.2351C143.825 3.2351 144.313 4.2351 144.313 5.2026C144.313 6.1701 143.825 7.1801 142.723 7.1801ZM142.723 8.1526C144.518 8.1526 145.545 6.9201 145.545 5.2026C145.545 3.4851 144.518 2.2501 142.723 2.2501C140.928 2.2501 139.903 3.5001 139.903 5.2026C139.903 6.9051 140.93 8.1526 142.723 8.1526ZM151.48 8.0001H150.27V7.2251H150.248C150.085 7.50367 149.853 7.73559 149.575 7.89849C149.296 8.06139 148.98 8.14977 148.658 8.1551C147.198 8.1551 146.573 7.4201 146.573 5.9601V2.4126H147.805V5.8401C147.805 6.8251 148.205 7.1801 148.875 7.1801C149.903 7.1801 150.248 6.5226 150.248 5.6551V2.4051H151.48V8.0001ZM152.225 2.4126H153.565L154.98 6.7051H154.998L156.36 2.4126H157.635L155.635 8.0001H154.248L152.225 2.4126ZM159.348 4.7151C159.345 4.52085 159.381 4.32802 159.454 4.14791C159.527 3.9678 159.635 3.80403 159.772 3.66619C159.909 3.52836 160.072 3.41923 160.251 3.34521C160.431 3.27118 160.624 3.23375 160.818 3.2351C161.65 3.2351 162.18 3.9376 162.223 4.7151H159.348ZM163.455 5.5251C163.663 3.8501 162.58 2.2501 160.818 2.2501C159.153 2.2501 158.115 3.6126 158.115 5.2001C158.115 6.9176 159.098 8.1401 160.85 8.1401C162.07 8.1401 163.1 7.4601 163.38 6.2376H162.213C161.998 6.8551 161.565 7.1676 160.85 7.1676C159.823 7.1676 159.35 6.3901 159.35 5.5126L163.455 5.5251ZM164.398 2.4126H165.555V3.5001H165.575C165.688 3.15036 165.904 2.84329 166.196 2.61993C166.488 2.39657 166.841 2.26754 167.208 2.2501C167.363 2.2486 167.519 2.25946 167.673 2.2826V3.4726C167.497 3.44351 167.32 3.42515 167.143 3.4176C166.3 3.4176 165.63 4.0976 165.63 5.3301V8.0001H164.398V2.4126ZM168.2 2.4126H169.368V3.2351L169.39 3.2576C169.567 2.95091 169.823 2.69673 170.13 2.52103C170.438 2.34534 170.786 2.25443 171.14 2.2576C172.353 2.2576 173.118 2.9051 173.118 4.1601V8.0001H171.885V4.5001C171.865 3.6251 171.518 3.2501 170.793 3.2501C169.97 3.2501 169.443 3.8976 169.443 4.7201V8.0001H168.21L168.2 2.4126ZM175.368 4.7151C175.365 4.52085 175.401 4.32802 175.474 4.14791C175.547 3.9678 175.655 3.80403 175.792 3.66619C175.929 3.52836 176.092 3.41923 176.271 3.34521C176.451 3.27118 176.644 3.23375 176.838 3.2351C177.67 3.2351 178.2 3.9376 178.243 4.7151H175.368ZM179.475 5.5251C179.68 3.8501 178.6 2.2501 176.838 2.2501C175.173 2.2501 174.135 3.6126 174.135 5.2001C174.135 6.9176 175.12 8.1401 176.87 8.1401C178.093 8.1401 179.12 7.4601 179.4 6.2376H178.233C178.015 6.8551 177.583 7.1676 176.87 7.1676C175.843 7.1676 175.37 6.3901 175.37 5.5126L179.475 5.5251ZM180.415 2.4126H181.583V3.1901H181.615C181.787 2.88981 182.038 2.64294 182.341 2.47698C182.644 2.31101 182.988 2.23247 183.333 2.2501C184.015 2.2501 184.653 2.5426 184.9 3.1801C185.087 2.88761 185.347 2.64834 185.653 2.48542C185.96 2.3225 186.303 2.24144 186.65 2.2501C187.828 2.2501 188.52 2.7701 188.52 4.1301V8.0001H187.288V4.7501C187.288 3.8626 187.233 3.2501 186.273 3.2501C185.44 3.2501 185.083 3.8026 185.083 4.7501V8.0001H183.85V4.4126C183.85 3.6451 183.6 3.2351 182.868 3.2351C182.23 3.2351 181.648 3.7551 181.648 4.6826V8.0001H180.415V2.4126ZM190.783 4.7151C190.78 4.52127 190.816 4.32885 190.889 4.14907C190.961 3.96929 191.069 3.80575 191.205 3.66798C191.341 3.53022 191.504 3.42099 191.683 3.34666C191.862 3.27234 192.054 3.23442 192.248 3.2351C193.08 3.2351 193.61 3.9376 193.653 4.7151H190.783ZM194.89 5.5251C195.095 3.8501 194.013 2.2501 192.248 2.2501C190.583 2.2501 189.545 3.6126 189.545 5.2001C189.545 6.9176 190.528 8.1401 192.28 8.1401C193.5 8.1401 194.53 7.4601 194.81 6.2376H193.643C193.428 6.8551 192.995 7.1676 192.28 7.1676C191.253 7.1676 190.78 6.3901 190.78 5.5126L194.89 5.5251ZM195.83 2.4126H196.998V3.2351L197.02 3.2576C197.197 2.95091 197.453 2.69673 197.76 2.52103C198.068 2.34534 198.416 2.25443 198.77 2.2576C199.983 2.2576 200.748 2.9051 200.748 4.1601V8.0001H199.498V4.5001C199.478 3.6251 199.13 3.2501 198.405 3.2501C197.583 3.2501 197.053 3.8976 197.053 4.7201V8.0001H195.82L195.83 2.4126ZM201.473 2.4126H202.403V0.750098H203.635V2.4251H204.748V3.3451H203.635V6.3176C203.635 6.8176 203.678 7.0851 204.23 7.0851C204.405 7.09252 204.579 7.07825 204.75 7.0426V8.0001C204.48 8.0201 204.22 8.0651 203.95 8.0651C202.665 8.0651 202.428 7.5651 202.405 6.6376V3.3326H201.475V2.4126H201.473ZM132.92 16.0776C132.92 15.0776 133.33 14.0451 134.488 14.0451C135.438 14.0451 136.033 14.7801 136.033 16.0126C136.033 16.9851 135.568 17.9901 134.465 17.9901C133.363 17.9901 132.92 17.0376 132.92 16.0776ZM137.223 11.0926H135.998V13.9476H135.975C135.598 13.3326 134.818 13.0726 134.118 13.0726C132.895 13.0726 131.695 13.9576 131.695 15.9801C131.695 17.6551 132.55 18.9626 134.31 18.9626C135.013 18.9626 135.715 18.6926 136.04 18.0551H136.06V18.8051H137.228V11.0926H137.223ZM143.47 18.8126H142.248V18.0326C142.085 18.3112 141.853 18.5431 141.575 18.706C141.296 18.8689 140.98 18.9573 140.658 18.9626C139.198 18.9626 138.573 18.2276 138.573 16.7676V13.2226H139.805V16.6476C139.805 17.6326 140.205 17.9876 140.875 17.9876C141.903 17.9876 142.248 17.3301 142.248 16.4626V13.2126H143.48V18.8126H143.47ZM153.155 13.5476C152.928 12.6601 152.355 12.0126 151.23 12.0126C149.575 12.0126 148.885 13.4726 148.885 14.9526C148.885 16.4326 149.578 17.8926 151.23 17.8926C152.43 17.8926 153.088 16.9976 153.198 15.8726H154.518C154.41 17.7201 153.103 18.9976 151.233 18.9976C148.92 18.9976 147.535 17.1601 147.535 14.9551C147.535 12.7501 148.918 10.9126 151.233 10.9126C152.983 10.9126 154.345 11.8851 154.508 13.5501H153.155V13.5476ZM159.025 16.9301C159.025 17.7076 158.183 17.9901 157.643 17.9901C157.21 17.9901 156.508 17.8276 156.508 17.2776C156.508 16.6301 156.983 16.4351 157.508 16.3476C158.033 16.2601 158.643 16.2601 159.02 16.0126V16.9326L159.025 16.9301ZM160.258 14.6801C160.258 13.5026 159.113 13.0576 158.008 13.0576C156.775 13.0576 155.555 13.4801 155.468 14.9176H156.7C156.755 14.3126 157.243 14.0301 157.933 14.0301C158.433 14.0301 159.09 14.1501 159.09 14.7801C159.09 15.5051 158.3 15.4076 157.415 15.5701C156.378 15.6876 155.265 15.9151 155.265 17.3201C155.265 18.4126 156.173 18.9526 157.178 18.9526C157.885 18.9725 158.574 18.7303 159.113 18.2726C159.21 18.7726 159.568 18.9526 160.065 18.9526C160.329 18.9394 160.591 18.8923 160.843 18.8126V17.9701C160.743 17.9852 160.642 17.9919 160.54 17.9901C160.313 17.9901 160.248 17.8726 160.248 17.5676V14.6926L160.258 14.6801ZM161.585 13.2226H162.748V14.0451L162.77 14.0676C162.947 13.7609 163.203 13.5067 163.51 13.331C163.818 13.1553 164.166 13.0644 164.52 13.0676C165.733 13.0676 166.498 13.7151 166.498 14.9701V18.8126H165.265V15.2976C165.245 14.4226 164.898 14.0476 164.173 14.0476C163.35 14.0476 162.823 14.6951 162.823 15.5176V18.8126H161.59L161.585 13.2226ZM171.248 16.9301C171.248 17.7076 170.405 17.9901 169.863 17.9901C169.43 17.9901 168.728 17.8276 168.728 17.2776C168.728 16.6301 169.203 16.4351 169.728 16.3476C170.253 16.2601 170.86 16.2501 171.248 16.0001V16.9201V16.9301ZM172.48 14.6801C172.48 13.5026 171.335 13.0576 170.243 13.0576C169.01 13.0576 167.788 13.4801 167.703 14.9176H168.935C168.99 14.3126 169.475 14.0301 170.168 14.0301C170.668 14.0301 171.323 14.1501 171.323 14.7801C171.323 15.5051 170.533 15.4076 169.648 15.5701C168.61 15.6876 167.495 15.9151 167.495 17.3201C167.495 18.4126 168.405 18.9526 169.408 18.9526C170.115 18.9725 170.804 18.7303 171.343 18.2726C171.44 18.7726 171.798 18.9526 172.295 18.9526C172.559 18.9395 172.821 18.8924 173.073 18.8126V17.9701C172.973 17.9853 172.872 17.992 172.77 17.9901C172.543 17.9901 172.478 17.8726 172.478 17.5676V14.6926L172.48 14.6801ZM174.763 16.0776C174.763 15.0776 175.173 14.0451 176.33 14.0451C177.28 14.0451 177.875 14.7801 177.875 16.0126C177.875 16.9851 177.41 17.9901 176.308 17.9901C175.205 17.9901 174.763 17.0376 174.763 16.0776ZM179.065 11.0951H177.833V13.9476H177.81C177.433 13.3326 176.655 13.0726 175.953 13.0726C174.73 13.0726 173.533 13.9576 173.533 15.9801C173.533 17.6551 174.388 18.9626 176.148 18.9626C176.85 18.9626 177.553 18.6926 177.878 18.0551H177.9V18.8051H179.068V11.0926L179.065 11.0951ZM183.853 16.9301C183.853 17.7076 183.01 17.9901 182.47 17.9901C182.038 17.9901 181.335 17.8276 181.335 17.2776C181.335 16.6301 181.81 16.4351 182.335 16.3476C182.86 16.2601 183.47 16.2601 183.848 16.0126V16.9326L183.853 16.9301ZM185.085 14.6801C185.085 13.5026 183.94 13.0576 182.848 13.0576C181.615 13.0576 180.393 13.4801 180.308 14.9176H181.54C181.595 14.3126 182.08 14.0301 182.773 14.0301C183.273 14.0301 183.928 14.1501 183.928 14.7801C183.928 15.5051 183.138 15.4076 182.253 15.5701C181.215 15.6876 180.1 15.9151 180.1 17.3201C180.1 18.4126 181.01 18.9526 182.013 18.9526C182.72 18.9722 183.409 18.7301 183.948 18.2726C184.045 18.7726 184.403 18.9526 184.898 18.9526C185.162 18.9394 185.423 18.8924 185.675 18.8126V17.9701C185.575 17.9853 185.474 17.992 185.373 17.9901C185.145 17.9901 185.08 17.8726 185.08 17.5676V14.6926L185.085 14.6801Z" fill="black"/>
</g>
<defs>
<clipPath id="clip0_36_258">
<rect width="204.75" height="18.9925" fill="white"/>
</clipPath>
</defs>
</svg>
