<svg width="52" height="32" viewBox="0 0 52 32" fill="none" xmlns="http://www.w3.org/2000/svg">
<g clip-path="url(#clip0_36_267)">
<path d="M52.0025 25.7917L26.0729 32L0.0566406 25.7917V0H52.0025V25.7917Z" fill="#ED1C24"/>
<path d="M26.0624 30.4453L1.59375 24.5884V1.56543H50.4554V24.5884L26.0624 30.4453ZM2.28636 24.0559L26.0624 29.7425L49.7736 24.0559V2.23631H2.28636V24.0559ZM11.2362 13.439L13.6712 7.22001H14.8724L17.329 13.439H16.1494L15.6733 12.225H12.892L12.4266 13.439H11.2362ZM14.288 8.38074L13.2275 11.3092H15.3486L14.288 8.38074ZM34.2655 19.839C34.5361 19.839 34.7417 20.0413 34.7417 20.3075C34.7417 20.5737 34.5361 20.7761 34.2655 20.7761C33.995 20.7761 33.7894 20.5737 33.7894 20.3075C33.7894 20.052 33.995 19.839 34.2655 19.839ZM37.9559 16.1119C38.3346 16.1119 38.9623 16.2077 39.5684 16.6443L39.2437 17.1129C38.7459 16.7401 38.1723 16.7188 37.9775 16.7188C36.8412 16.7188 36.0837 17.4536 36.0728 18.4546C36.0837 19.4556 36.8412 20.1904 37.9775 20.1904C38.1723 20.1904 38.7351 20.1584 39.2437 19.7964L39.5684 20.2649C38.9623 20.7015 38.3455 20.7974 37.9559 20.7974C36.5598 20.7761 35.3802 19.9561 35.3802 18.4546C35.391 16.9425 36.5598 16.1225 37.9559 16.1119Z" fill="white"/>
<path d="M44.6333 20.6909H43.9515V19.7964C43.5511 20.4672 42.9018 20.7867 42.1443 20.7867C40.759 20.7867 39.8716 19.7325 39.8716 18.4439C39.8716 17.1554 40.759 16.1012 42.1443 16.1012C42.9018 16.1012 43.5511 16.4206 43.9515 17.0915V16.197H44.6333V20.6909ZM42.1984 20.1797C43.1724 20.1797 43.9515 19.4875 43.9515 18.4439C43.9515 17.4003 43.1615 16.7082 42.1984 16.7082C41.1595 16.7082 40.5534 17.4855 40.5534 18.4439C40.5534 19.3917 41.1703 20.1797 42.1984 20.1797ZM14.2234 11.3305H12.5784H14.2234ZM22.21 13.439H21.1062V12.6829C20.814 13.2686 20.2837 13.5348 19.6344 13.5348C18.4981 13.5348 17.7946 12.7255 17.7946 11.4263V8.94511H18.9093V11.4263C18.9093 12.1504 19.3422 12.5764 19.9374 12.5764C20.4569 12.5764 21.1062 12.1611 21.1062 10.8832V8.94511H22.2209V13.439H22.21ZM26.7769 8.94511V9.78637H25.4025V13.439H24.2879V9.78637H22.9026V8.94511H24.342V7.21998H25.4025V8.94511H26.7769ZM29.45 8.84927C30.7811 8.84927 31.9282 9.90351 31.9282 11.192C31.9282 12.4912 30.7811 13.5348 29.45 13.5348C28.1297 13.5348 26.9717 12.4912 26.9717 11.192C26.9717 9.89286 28.1297 8.84927 29.45 8.84927ZM29.45 12.6083C30.2292 12.6083 30.8136 11.9907 30.8136 11.192C30.8136 10.4147 30.2292 9.77572 29.45 9.77572C28.6816 9.77572 28.0972 10.3934 28.0972 11.192C28.0972 11.9907 28.6816 12.6083 29.45 12.6083ZM12.2862 14.4719V15.3877H10.3815V20.6909H9.22356V15.3877H7.34052V14.4719H12.2862ZM13.3901 17.1874C13.5416 16.4206 14.0502 16.0905 14.5372 16.0905C14.6887 16.0905 14.7861 16.1225 14.916 16.1544V17.23C14.7428 17.1661 14.5372 17.1448 14.3965 17.1448C13.9853 17.1448 13.4117 17.3684 13.4117 18.6143V20.6909H12.297V16.197H13.3901V17.1874ZM19.9807 16.197V20.6909H18.8768V20.02C18.5522 20.5098 17.9894 20.7974 17.3293 20.7974C15.9873 20.7974 15.1108 19.7538 15.1108 18.4333C15.1108 17.1661 15.9549 16.1012 17.3401 16.1012C17.9461 16.1012 18.5197 16.3461 18.8768 16.8679V16.197H19.9807ZM17.5565 19.8709C18.3141 19.8709 18.9093 19.3598 18.9093 18.4759C18.9093 17.6027 18.3466 17.0063 17.5241 17.0063C16.6908 17.0063 16.2146 17.6559 16.2146 18.4226C16.2254 19.232 16.7341 19.8709 17.5565 19.8709ZM25.4458 14.4612V20.6909H24.342V20.02C24.0065 20.5098 23.5411 20.7974 22.881 20.7974C21.5499 20.7974 20.6625 19.7538 20.6625 18.4333C20.6625 17.1661 21.4958 16.1012 22.881 16.1012C23.487 16.1012 23.9524 16.3461 24.3312 16.8679V14.4719H25.4458V14.4612ZM23.1083 19.8709C23.8658 19.8709 24.3528 19.3598 24.3528 18.4759C24.3528 17.6027 23.8983 17.0063 23.0758 17.0063C22.2425 17.0063 21.7772 17.6559 21.7772 18.4226C21.7772 19.232 22.2858 19.8709 23.1083 19.8709ZM30.5106 19.9241C29.937 20.595 29.2335 20.7867 28.5734 20.7867C27.0258 20.7867 26.106 19.7431 26.106 18.4546C26.106 17.1448 27.1016 16.0905 28.4544 16.0905C29.6123 16.0905 30.7054 16.8573 30.7054 18.5824H27.1449C27.1449 19.2959 27.6968 19.8496 28.6167 19.8496C29.147 19.8496 29.5474 19.6473 29.9153 19.2959L30.5106 19.9241ZM27.199 17.8583H29.6448C29.4825 17.1661 28.8981 16.9744 28.4544 16.9744C27.989 16.9637 27.4154 17.1661 27.199 17.8583ZM32.4693 17.1874C32.6209 16.4206 33.1295 16.0905 33.6165 16.0905C33.768 16.0905 33.8654 16.1225 33.9953 16.1544V17.23C33.8221 17.1661 33.6165 17.1448 33.4758 17.1448C33.0646 17.1448 32.491 17.3684 32.491 18.6143V20.6909H31.3763V16.197H32.4693V17.1874ZM10.0569 13.439H7.35135L7.65436 12.6616C7.66518 12.6296 7.64354 12.6083 7.6219 12.587L5.79297 10.8832L6.44229 10.4892C6.47476 10.4679 6.4964 10.436 6.4964 10.3934C6.4964 10.3827 6.00941 9.19003 6.00941 9.19003L7.28641 9.47755C7.31888 9.47755 7.35135 9.45626 7.37299 9.43496L7.67601 8.74278L8.63917 9.83962C8.67164 9.86092 8.7041 9.88221 8.74739 9.88221C8.83397 9.88221 8.81232 9.81832 8.8015 9.73313C8.8015 9.72248 8.8015 9.71183 8.79068 9.70118L8.28204 7.24128L9.48329 7.88022C9.51576 7.88022 9.5374 7.85892 9.55905 7.83762L10.4032 6.35742L11.2581 7.83762C11.2689 7.85892 11.3014 7.88022 11.3339 7.88022C11.3447 7.88022 12.5243 7.24128 12.5243 7.24128L10.0569 13.439Z" fill="white"/>
</g>
<defs>
<clipPath id="clip0_36_267">
<rect width="52" height="32" fill="white"/>
</clipPath>
</defs>
</svg>
