<svg width="104" height="18" viewBox="0 0 104 18" fill="none" xmlns="http://www.w3.org/2000/svg">
<path opacity="0.9" fill-rule="evenodd" clip-rule="evenodd" d="M12.9539 4.85207L11.3836 7.65858C11.1668 7.51235 10.9338 7.38414 10.6868 7.27397C10.0684 6.99752 9.36956 6.84127 8.63261 6.83526C8.10851 6.83526 7.5824 6.83126 7.05629 6.83126C5.20487 6.83126 3.51209 7.76676 2.68276 9.24914L1.96991 10.5212L1.85746 10.7215C0.73295 9.9703 0.0040285 8.77639 1.24058e-05 7.42621C-0.00601174 5.15055 2.18276 3.28955 4.72294 3.28955H11.8736C12.7712 3.28955 13.3535 4.13491 12.9519 4.85607L12.9539 4.85207Z" fill="white"/>
<path opacity="0.6" fill-rule="evenodd" clip-rule="evenodd" d="M11.3837 7.65834L11.2732 7.85866L10.5604 9.13071C9.73103 10.6131 8.03624 11.5486 6.18682 11.5486C5.66272 11.5486 5.14063 11.5486 4.62055 11.5446H4.6085C3.87155 11.5386 3.17274 11.3823 2.55427 11.1059C2.30728 10.9957 2.07234 10.8675 1.85547 10.7233L1.96792 10.5229L2.68077 9.2509C3.5101 7.76851 5.20489 6.83301 7.0543 6.83301C7.58242 6.83301 8.10853 6.83301 8.63062 6.83702C9.36757 6.84303 10.0664 6.99928 10.6849 7.27572C10.9318 7.3859 11.1648 7.5141 11.3816 7.66034L11.3837 7.65834Z" fill="white"/>
<path opacity="0.3" fill-rule="evenodd" clip-rule="evenodd" d="M13.2451 10.9517C13.2511 13.2273 11.0623 15.0883 8.52213 15.0883H1.37147C0.475881 15.0883 -0.10846 14.243 0.293149 13.5218L1.86143 10.7173C2.0783 10.8615 2.31325 10.9897 2.56024 11.0999C3.17872 11.3763 3.87752 11.5326 4.61447 11.5386H4.62652C5.1466 11.5386 5.66869 11.5426 6.1928 11.5426C8.04422 11.5426 9.737 10.6071 10.5663 9.12471L11.2792 7.85267L11.3896 7.65234C12.5141 8.39955 13.2451 9.59547 13.2471 10.9456L13.2451 10.9517Z" fill="white"/>
<path d="M21.3731 14.1008C20.5558 14.1008 19.7727 14.0026 19.0257 13.8083C18.2787 13.614 17.6803 13.3676 17.2305 13.0731L18.1381 11.1039C18.5879 11.3644 19.112 11.5807 19.7124 11.751C20.3108 11.9233 20.9012 12.0074 21.4815 12.0074C22.1221 12.0074 22.5759 11.9313 22.841 11.777C23.108 11.6228 23.2406 11.4104 23.2406 11.138C23.2406 10.9136 23.1361 10.7454 22.9293 10.6332C22.7225 10.521 22.4494 10.4349 22.112 10.3768C21.7747 10.3187 21.3972 10.2586 20.9835 10.1985C20.5678 10.1404 20.1562 10.0563 19.7486 9.95009C19.3389 9.84391 18.9594 9.69368 18.61 9.49736C18.2606 9.30305 17.9815 9.03261 17.7746 8.69006C17.5678 8.34751 17.4634 7.9048 17.4634 7.35992C17.4634 6.75695 17.6421 6.22208 17.9975 5.75533C18.353 5.28858 18.857 4.924 19.5096 4.66358C20.1622 4.40316 20.9494 4.27295 21.8751 4.27295C22.5397 4.27295 23.2064 4.34707 23.8751 4.49531C24.5438 4.64355 25.1101 4.84788 25.5739 5.10629L24.6321 7.07546C24.1823 6.81504 23.7225 6.63275 23.2546 6.52658C22.7867 6.42041 22.3389 6.36632 21.9132 6.36632C21.2727 6.36632 20.8108 6.44845 20.5257 6.61472C20.2405 6.78099 20.1 6.99333 20.1 7.25375C20.1 7.49013 20.2064 7.67042 20.4193 7.79462C20.6321 7.91882 20.9112 8.01097 21.2546 8.06906C21.598 8.12916 21.9775 8.18725 22.3932 8.24734C22.8088 8.30744 23.2165 8.38958 23.6201 8.49575C24.0237 8.60192 24.3992 8.75216 24.7486 8.94847C25.098 9.14279 25.3771 9.41322 25.584 9.75577C25.7908 10.0983 25.8952 10.543 25.8952 11.0859C25.8952 11.6648 25.7165 12.1837 25.3611 12.6384C25.0056 13.0931 24.4936 13.4517 23.8229 13.7121C23.1522 13.9726 22.3389 14.1028 21.3791 14.1028L21.3731 14.1008Z" fill="white"/>
<path d="M31.5999 14.1008C30.5919 14.1008 29.6943 13.8884 28.9071 13.4617C28.118 13.0351 27.4995 12.4541 27.0497 11.7149C26.5999 10.9757 26.375 10.1344 26.375 9.18686C26.375 8.23933 26.5999 7.37995 27.0497 6.64076C27.4995 5.90157 28.12 5.32264 28.9071 4.90196C29.6943 4.48329 30.5939 4.27295 31.5999 4.27295C32.606 4.27295 33.5257 4.48329 34.3208 4.90196C35.114 5.32264 35.7365 5.90157 36.1883 6.64076C36.6381 7.37995 36.863 8.22731 36.863 9.18686C36.863 10.1464 36.6381 10.9898 36.1883 11.7229C35.7385 12.4561 35.116 13.0351 34.3208 13.4617C33.5257 13.8884 32.62 14.1008 31.5999 14.1008ZM31.5999 11.8311C32.0738 11.8311 32.4915 11.7269 32.853 11.5206C33.2144 11.3143 33.5056 11.0098 33.7245 10.6071C33.9433 10.2045 34.0538 9.73174 34.0538 9.18886C34.0538 8.64599 33.9433 8.1592 33.7245 7.77058C33.5056 7.37995 33.2144 7.08147 32.853 6.87514C32.4915 6.66881 32.0799 6.56464 31.618 6.56464C31.1562 6.56464 30.7405 6.66881 30.373 6.87514C30.0056 7.08147 29.7124 7.37995 29.4935 7.77058C29.2746 8.16121 29.1642 8.63397 29.1642 9.18886C29.1642 9.74376 29.2746 10.2065 29.4935 10.6071C29.7124 11.0098 30.0056 11.3143 30.373 11.5206C30.7405 11.7269 31.1501 11.8311 31.5999 11.8311Z" fill="white"/>
<path d="M37.0352 6.75687V4.62945H43.6677V6.75687H37.0352ZM38.5111 13.9585V4.20276C38.5111 3.11501 38.8304 2.25162 39.4709 1.61259C40.1115 0.973564 41.0231 0.655052 42.2099 0.655052C42.6015 0.655052 42.987 0.697119 43.3665 0.779251C43.7461 0.861383 44.0653 0.985586 44.3264 1.15185L43.5975 3.17311C43.4428 3.06694 43.2722 2.9848 43.0814 2.92471C42.8926 2.86661 42.6898 2.83657 42.477 2.83657C42.0734 2.83657 41.7621 2.94874 41.5432 3.17311C41.3243 3.39747 41.2139 3.75204 41.2139 4.23682V5.12424L41.3023 6.29413V13.9565H38.5111V13.9585ZM46.6176 3.08496C46.0955 3.08496 45.6758 2.93673 45.3545 2.64225C45.0352 2.34578 44.8746 1.97918 44.8746 1.54248C44.8746 1.10578 45.0352 0.739188 45.3545 0.442711C45.6738 0.146234 46.0955 0 46.6176 0C47.1397 0 47.5453 0.13822 47.8706 0.416668C48.1959 0.695116 48.3585 1.05169 48.3585 1.4904C48.3585 1.95114 48.1979 2.33375 47.8786 2.63424C47.5593 2.93472 47.1377 3.08697 46.6156 3.08697L46.6176 3.08496ZM45.23 13.9585V4.4151H48.0031V13.9585H45.23Z" fill="white"/>
<path d="M52.9825 14.1008C52.2475 14.1008 51.613 13.9726 51.0809 13.7202C50.5467 13.4657 50.1351 13.1192 49.8459 12.6825C49.5547 12.2458 49.4102 11.755 49.4102 11.2101C49.4102 10.6652 49.5487 10.1604 49.8278 9.72974C50.107 9.29904 50.5487 8.9645 51.1531 8.72812C51.7576 8.49174 52.5507 8.37355 53.5347 8.37355H56.0588V9.97012H53.8178C53.1652 9.97012 52.7174 10.0763 52.4764 10.2886C52.2335 10.501 52.111 10.7674 52.111 11.0859C52.111 11.4405 52.2495 11.7209 52.5287 11.9293C52.8078 12.1356 53.1833 12.2398 53.6572 12.2398C54.1311 12.2398 54.5548 12.1336 54.9283 11.9213C55.3018 11.7089 55.5648 11.3824 55.7194 10.9457L56.1451 12.2398C55.9443 12.8307 55.5769 13.2895 55.0427 13.614C54.5086 13.9385 53.8218 14.1028 52.9805 14.1028L52.9825 14.1008ZM55.8982 13.9585V12.0955L55.7194 11.6869V8.35152C55.7194 7.76057 55.5387 7.29982 55.1773 6.96729C54.8158 6.63676 54.2616 6.47049 53.5146 6.47049C53.0046 6.47049 52.5046 6.55062 52.0126 6.71088C51.5206 6.87113 51.0969 7.08547 50.7415 7.35791L49.7636 5.4248C50.2857 5.04619 50.9122 4.75973 51.6491 4.56542C52.3841 4.37111 53.1311 4.27295 53.8901 4.27295C55.348 4.27295 56.4805 4.6155 57.2857 5.30261C58.091 5.98771 58.4946 7.05944 58.4946 8.51378V13.9585H55.8982Z" fill="white"/>
<path d="M60.8047 17.4V4.55938H62.4413V7.09546L62.3348 9.27698L62.5135 11.4585V17.4H60.8067H60.8047ZM65.8007 14.0647C65.0176 14.0647 64.3047 13.8844 63.6581 13.5238C63.0115 13.1632 62.4955 12.6284 62.1119 11.9192C61.7264 11.2101 61.5336 10.3227 61.5336 9.25895C61.5336 8.19524 61.7204 7.30781 62.0939 6.59867C62.4674 5.88952 62.9774 5.35667 63.622 5.0021C64.2686 4.64753 64.9935 4.46924 65.8007 4.46924C66.7244 4.46924 67.5437 4.66956 68.2546 5.07221C68.9654 5.47486 69.5276 6.03376 69.9433 6.74891C70.359 7.46406 70.5658 8.30141 70.5658 9.25895C70.5658 10.2165 70.359 11.0558 69.9433 11.777C69.5276 12.4982 68.9654 13.0611 68.2546 13.4617C67.5437 13.8644 66.7264 14.0647 65.8007 14.0647ZM65.6581 12.5743C66.2626 12.5743 66.8047 12.4381 67.2847 12.1656C67.7646 11.8932 68.1441 11.5066 68.4232 11.0038C68.7023 10.5009 68.8409 9.92001 68.8409 9.25694C68.8409 8.59387 68.7023 8.00092 68.4232 7.51013C68.1441 7.01934 67.7646 6.63873 67.2847 6.36629C66.8047 6.09385 66.2626 5.95763 65.6581 5.95763C65.0537 5.95763 64.5296 6.09385 64.0497 6.36629C63.5698 6.63873 63.1902 7.01934 62.9111 7.51013C62.632 8.00092 62.4935 8.58386 62.4935 9.25694C62.4935 9.93003 62.632 10.5009 62.9111 11.0038C63.1902 11.5066 63.5698 11.8932 64.0497 12.1656C64.5296 12.4381 65.0658 12.5743 65.6581 12.5743Z" fill="white"/>
<path d="M76.0054 14.0649C75.2001 14.0649 74.4913 13.9167 73.8808 13.6222C73.2704 13.3257 72.7965 12.875 72.4592 12.266C72.1218 11.657 71.9531 10.8918 71.9531 9.96832V4.55962H73.66V9.77401C73.66 10.6955 73.8829 11.3886 74.3266 11.8494C74.7704 12.3101 75.3969 12.5405 76.2021 12.5405C76.7945 12.5405 77.3106 12.4203 77.7483 12.1759C78.1861 11.9335 78.5255 11.5789 78.7624 11.1122C78.9994 10.6454 79.1178 10.0805 79.1178 9.41743V4.55762H80.8247V13.9587H79.2062V11.4227L79.4733 12.0958C79.164 12.7228 78.7022 13.2075 78.0857 13.5501C77.4692 13.8926 76.7765 14.0649 76.0054 14.0649Z" fill="white"/>
<path d="M83.1914 13.9585V0.797363H84.8982V13.9585H83.1914Z" fill="white"/>
<path d="M89.9678 14.0647C89.1847 14.0647 88.4417 13.9586 87.7369 13.7462C87.0321 13.5339 86.4778 13.2735 86.0742 12.965L86.7851 11.6168C87.1887 11.8892 87.6867 12.1196 88.2791 12.3079C88.8714 12.4982 89.4759 12.5924 90.0923 12.5924C90.8855 12.5924 91.4578 12.4802 91.8072 12.2558C92.1566 12.0315 92.3313 11.717 92.3313 11.3163C92.3313 11.0218 92.2249 10.7895 92.012 10.6252C91.7992 10.4589 91.516 10.3347 91.1666 10.2526C90.8172 10.1705 90.4297 10.0963 90.002 10.0302C89.5763 9.96614 89.1485 9.882 88.7228 9.78184C88.2951 9.68168 87.9056 9.53945 87.5501 9.35515C87.1947 9.17286 86.9096 8.91845 86.6967 8.59192C86.4839 8.2674 86.3774 7.83271 86.3774 7.28783C86.3774 6.74295 86.5381 6.22412 86.8574 5.79743C87.1766 5.37074 87.6305 5.04422 88.2168 4.81385C88.8032 4.58347 89.4999 4.46729 90.3052 4.46729C90.9216 4.46729 91.5462 4.54141 92.1807 4.68965C92.8152 4.83788 93.3333 5.04822 93.7369 5.31866L93.008 6.66683C92.5823 6.38237 92.1365 6.18805 91.6747 6.08188C91.2128 5.97571 90.751 5.92163 90.2871 5.92163C89.5401 5.92163 88.9839 6.04383 88.6164 6.28622C88.2489 6.52861 88.0662 6.8391 88.0662 7.21771C88.0662 7.53623 88.1766 7.78262 88.3955 7.95289C88.6144 8.12517 88.8995 8.25739 89.2489 8.35154C89.5983 8.44569 89.9859 8.52582 90.4136 8.59192C90.8393 8.65803 91.267 8.74017 91.6927 8.84033C92.1204 8.94049 92.508 9.08071 92.8574 9.25699C93.2068 9.43528 93.492 9.68368 93.7108 10.0022C93.9297 10.3207 94.0401 10.7474 94.0401 11.2803C94.0401 11.8472 93.8735 12.338 93.5421 12.7526C93.2108 13.1673 92.7429 13.4878 92.1385 13.7202C91.5341 13.9505 90.8112 14.0667 89.9698 14.0667L89.9678 14.0647Z" fill="white"/>
<path d="M99.4765 14.0647C98.4684 14.0647 97.5829 13.8584 96.8178 13.4437C96.0527 13.0291 95.4604 12.4622 95.0407 11.741C94.619 11.0198 94.4102 10.1925 94.4102 9.25699C94.4102 8.32149 94.615 7.49616 95.0226 6.773C95.4323 6.05184 95.9945 5.48693 96.7114 5.07827C97.4282 4.66961 98.2375 4.46729 99.1391 4.46729C100.041 4.46729 100.858 4.66761 101.557 5.07026C102.256 5.47291 102.804 6.03781 103.201 6.76498C103.599 7.49215 103.798 8.34152 103.798 9.31108C103.798 9.38119 103.796 9.46533 103.79 9.55948C103.784 9.65364 103.776 9.74378 103.764 9.82591H95.7455V8.60194H102.876L102.183 9.02663C102.195 8.42365 102.071 7.88479 101.81 7.41203C101.549 6.93927 101.189 6.56867 100.733 6.30424C100.278 6.03782 99.7475 5.9056 99.1431 5.9056C98.5387 5.9056 98.0226 6.03782 97.5608 6.30424C97.0989 6.57067 96.7375 6.94327 96.4764 7.42204C96.2154 7.90081 96.0849 8.44769 96.0849 9.06268V9.34714C96.0849 9.97415 96.2294 10.533 96.5206 11.0238C96.8118 11.5146 97.2174 11.8952 97.7395 12.1677C98.2616 12.4401 98.86 12.5763 99.5347 12.5763C100.091 12.5763 100.599 12.4822 101.055 12.2919C101.511 12.1036 101.91 11.8191 102.256 11.4405L103.197 12.5403C102.772 13.0371 102.24 13.4157 101.607 13.6761C100.972 13.9365 100.266 14.0667 99.4825 14.0667L99.4765 14.0647Z" fill="white"/>
</svg>
