<svg width="58" height="31" viewBox="0 0 58 31" fill="none" xmlns="http://www.w3.org/2000/svg">
<g clip-path="url(#clip0_36_246)">
<path d="M16.418 11.5951V23.1601C16.418 23.2688 16.4612 23.3731 16.5381 23.45C16.6149 23.5269 16.7192 23.5701 16.828 23.5701H20.098C20.2054 23.5681 20.3078 23.524 20.383 23.4474C20.4583 23.3707 20.5005 23.2675 20.5005 23.1601V11.1401C20.5007 11.0812 20.4883 11.023 20.464 10.9695C20.4397 10.9159 20.4042 10.8681 20.3599 10.8294C20.3155 10.7908 20.2634 10.7621 20.207 10.7454C20.1506 10.7287 20.0912 10.7243 20.033 10.7326L16.773 11.1876C16.6744 11.2009 16.5841 11.2496 16.5188 11.3245C16.4535 11.3995 16.4177 11.4956 16.418 11.5951ZM33.4655 11.5951V23.1601C33.4655 23.2688 33.5087 23.3731 33.5856 23.45C33.6624 23.5269 33.7667 23.5701 33.8755 23.5701H37.143C37.2517 23.5701 37.356 23.5269 37.4329 23.45C37.5098 23.3731 37.553 23.2688 37.553 23.1601V11.1401C37.5532 11.0812 37.5408 11.023 37.5165 10.9695C37.4922 10.9159 37.4567 10.8681 37.4124 10.8294C37.368 10.7908 37.3159 10.7621 37.2595 10.7454C37.2031 10.7287 37.1437 10.7243 37.0855 10.7326L33.818 11.1876C33.7199 11.2015 33.6302 11.2504 33.5654 11.3253C33.5006 11.4002 33.4651 11.496 33.4655 11.5951ZM50.5005 11.5951V23.1601C50.5005 23.2688 50.5437 23.3731 50.6206 23.45C50.6974 23.5269 50.8017 23.5701 50.9105 23.5701H54.178C54.2867 23.5701 54.391 23.5269 54.4679 23.45C54.5448 23.3731 54.588 23.2688 54.588 23.1601V11.1401C54.5882 11.0812 54.5757 11.023 54.5515 10.9695C54.5272 10.9159 54.4917 10.8681 54.4474 10.8294C54.403 10.7908 54.3509 10.7621 54.2945 10.7454C54.2381 10.7287 54.1787 10.7243 54.1205 10.7326L50.853 11.1876C50.7549 11.2015 50.6652 11.2504 50.6004 11.3253C50.5356 11.4002 50.5001 11.496 50.5005 11.5951Z" fill="#373373"/>
<path d="M18.4644 7.95756C19.8686 7.95756 21.0069 6.81924 21.0069 5.41506C21.0069 4.01087 19.8686 2.87256 18.4644 2.87256C17.0602 2.87256 15.9219 4.01087 15.9219 5.41506C15.9219 6.81924 17.0602 7.95756 18.4644 7.95756Z" fill="#F8AA17"/>
<path d="M26.9878 5.085C28.392 5.085 29.5303 3.94668 29.5303 2.5425C29.5303 1.13832 28.392 0 26.9878 0C25.5836 0 24.4453 1.13832 24.4453 2.5425C24.4453 3.94668 25.5836 5.085 26.9878 5.085Z" fill="#F1454F"/>
<path d="M35.5112 7.95756C36.9154 7.95756 38.0538 6.81924 38.0538 5.41506C38.0538 4.01087 36.9154 2.87256 35.5112 2.87256C34.1071 2.87256 32.9688 4.01087 32.9688 5.41506C32.9688 6.81924 34.1071 7.95756 35.5112 7.95756Z" fill="#2681DB"/>
<path d="M44.0347 5.085C45.4389 5.085 46.5772 3.94668 46.5772 2.5425C46.5772 1.13832 45.4389 0 44.0347 0C42.6305 0 41.4922 1.13832 41.4922 2.5425C41.4922 3.94668 42.6305 5.085 44.0347 5.085Z" fill="#37A864"/>
<path d="M52.5581 7.95756C53.9623 7.95756 55.1006 6.81924 55.1006 5.41506C55.1006 4.01087 53.9623 2.87256 52.5581 2.87256C51.1539 2.87256 50.0156 4.01087 50.0156 5.41506C50.0156 6.81924 51.1539 7.95756 52.5581 7.95756Z" fill="#9B44AD"/>
<path d="M8.06 14.8925L13.4625 8.50004C13.5146 8.44051 13.5484 8.36718 13.5597 8.28889C13.5711 8.2106 13.5595 8.1307 13.5265 8.05881C13.4935 7.98693 13.4404 7.92614 13.3736 7.88378C13.3067 7.84141 13.2291 7.81927 13.15 7.82004H9.085C9.02365 7.8199 8.96305 7.83353 8.90767 7.85992C8.85228 7.88631 8.80353 7.9248 8.765 7.97254L4.3 13.4725C4.28434 13.4915 4.26324 13.5052 4.23956 13.5117C4.21587 13.5183 4.19073 13.5174 4.16755 13.5093C4.14437 13.5011 4.12426 13.486 4.10995 13.466C4.09563 13.446 4.08779 13.4221 4.0875 13.3975V1.57504C4.0875 1.4663 4.0443 1.36202 3.96741 1.28513C3.89052 1.20824 3.78624 1.16504 3.6775 1.16504L0.41 1.64504C0.1575 1.68754 0 1.82754 0 2.05504V23.16C0 23.2688 0.0431963 23.3731 0.120086 23.45C0.196976 23.5268 0.301261 23.57 0.41 23.57H3.68C3.78874 23.57 3.89302 23.5268 3.96991 23.45C4.0468 23.3731 4.09 23.2688 4.09 23.16V16.75C4.08996 16.7228 4.09863 16.6963 4.11475 16.6744C4.13086 16.6525 4.15356 16.6362 4.17954 16.6281C4.20552 16.62 4.23342 16.6205 4.25914 16.6294C4.28486 16.6382 4.30706 16.6551 4.3225 16.6775L9.02 23.395C9.05795 23.4493 9.10847 23.4935 9.16724 23.524C9.22602 23.5545 9.2913 23.5703 9.3575 23.57H13.3575C13.4343 23.5705 13.5097 23.5494 13.575 23.5092C13.6404 23.4689 13.6932 23.4111 13.7273 23.3423C13.7614 23.2735 13.7756 23.1965 13.7681 23.1201C13.7606 23.0437 13.7318 22.9709 13.685 22.91L8.0575 15C8.04666 14.9841 8.04108 14.9652 8.04152 14.9459C8.04197 14.9266 8.04843 14.908 8.06 14.8925ZM28.5625 7.86254L25.295 8.31754C25.1965 8.33088 25.1062 8.37956 25.0409 8.45452C24.9755 8.52948 24.9397 8.62562 24.94 8.72504V23.2975C24.9408 23.7217 24.9191 24.1457 24.875 24.5675C24.842 24.9216 24.7464 25.267 24.5925 25.5875C24.4557 25.8606 24.2452 26.0901 23.985 26.25C23.6645 26.428 23.3013 26.5145 22.935 26.5C22.7679 26.498 22.601 26.4872 22.435 26.4675L22.225 26.4375C21.8375 26.3575 21.725 26.57 21.6975 26.6875C21.6975 26.7425 21.6675 26.885 21.6675 26.885C21.5625 27.635 21.3975 28.7475 21.32 29.385C21.3105 29.4464 21.3137 29.509 21.3293 29.5691C21.345 29.6291 21.3727 29.6854 21.4109 29.7343C21.4491 29.7833 21.4968 29.8239 21.5513 29.8537C21.6057 29.8835 21.6657 29.9018 21.7275 29.9075C21.855 29.93 21.9925 29.95 22.1575 29.9725C22.5357 30.0206 22.9163 30.0473 23.2975 30.0525C24.475 30.0525 25.445 29.8625 26.18 29.49C26.8805 29.1456 27.4825 28.6296 27.93 27.99C28.3741 27.3233 28.6723 26.5701 28.805 25.78C28.9599 24.9019 29.0361 24.0117 29.0325 23.12V8.26754C29.0324 8.20867 29.0197 8.15052 28.9951 8.09703C28.9705 8.04353 28.9347 7.99596 28.8901 7.95753C28.8455 7.91911 28.7932 7.89073 28.7367 7.87434C28.6801 7.85795 28.6207 7.85392 28.5625 7.86254ZM45.71 8.19754L42.4425 7.84754C42.3866 7.84309 42.3304 7.85015 42.2774 7.86828C42.2243 7.88641 42.1755 7.91522 42.1341 7.95295C42.0926 7.99067 42.0593 8.0365 42.0362 8.0876C42.0132 8.1387 42.0008 8.19398 42 8.25004V23.2975C42.0008 23.7217 41.9791 24.1457 41.935 24.5675C41.902 24.9216 41.8064 25.267 41.6525 25.5875C41.5165 25.8646 41.3051 26.0977 41.0425 26.26C40.722 26.438 40.3588 26.5245 39.9925 26.51C39.8254 26.508 39.6585 26.4972 39.4925 26.4775L39.2825 26.4475C38.895 26.3675 38.7825 26.58 38.755 26.6975C38.755 26.7525 38.725 26.895 38.725 26.895C38.62 27.645 38.455 28.7575 38.3775 29.395C38.368 29.4564 38.3712 29.519 38.3868 29.5791C38.4025 29.6391 38.4302 29.6954 38.4684 29.7443C38.5066 29.7933 38.5543 29.8339 38.6088 29.8637C38.6632 29.8935 38.7232 29.9118 38.785 29.9175C38.9125 29.94 39.05 29.96 39.215 29.9825C39.5932 30.0306 39.9738 30.0573 40.355 30.0625C41.5325 30.0625 42.5025 29.8725 43.2375 29.5C43.938 29.1556 44.54 28.6396 44.9875 28C45.4316 27.3333 45.7298 26.5801 45.8625 25.79C46.0174 24.9119 46.0936 24.0217 46.09 23.13V8.60754C46.0903 8.5038 46.0512 8.40382 45.9807 8.32774C45.9102 8.25165 45.8135 8.20513 45.71 8.19754ZM56.2925 10.9225H56V11.6725H55.8225V10.9225H55.5275V10.75H56.295L56.2925 10.9225ZM57.3675 11.6625H57.1875V11.0875L57.1625 11.1675L56.9575 11.6675H56.8075L56.6025 11.1675L56.5775 11.0875V11.6625H56.4V10.75H56.605L56.855 11.335L56.875 11.3875L56.895 11.335L57.145 10.75H57.35L57.3675 11.6625Z" fill="#373373"/>
</g>
<defs>
<clipPath id="clip0_36_246">
<rect width="57.3675" height="30.075" fill="white"/>
</clipPath>
</defs>
</svg>
