<svg width="208" height="36" viewBox="0 0 208 36" fill="none" xmlns="http://www.w3.org/2000/svg">
<path opacity="0.9" fill-rule="evenodd" clip-rule="evenodd" d="M25.9059 10.0537L22.7653 15.6668C22.3316 15.3743 21.8657 15.1179 21.3717 14.8975C20.1348 14.3447 18.7372 14.0321 17.2633 14.0201C16.2151 14.0201 15.1628 14.0121 14.1106 14.0121C10.4078 14.0121 7.02222 15.8831 5.36357 18.8479L3.93786 21.392L3.71296 21.7926C1.46395 20.2902 0.00610388 17.9024 -0.00192831 15.202C-0.0139766 10.6507 4.36356 6.92871 9.44392 6.92871H23.7452C25.5404 6.92871 26.7051 8.61943 25.9019 10.0618L25.9059 10.0537Z" fill="#613C92"/>
<path opacity="0.6" fill-rule="evenodd" clip-rule="evenodd" d="M22.7673 15.6665L22.5464 16.0672L21.1207 18.6113C19.4621 21.576 16.0725 23.4471 12.3736 23.4471C11.3254 23.4471 10.2813 23.4471 9.2411 23.439H9.217C7.74309 23.427 6.34549 23.1145 5.10853 22.5616C4.61455 22.3413 4.14468 22.0849 3.71094 21.7964L3.93584 21.3958L5.36155 18.8517C7.02019 15.8869 10.4098 14.0159 14.1086 14.0159C15.1648 14.0159 16.2171 14.0159 17.2612 14.0239C18.7351 14.0359 20.1328 14.3484 21.3697 14.9013C21.8637 15.1217 22.3296 15.3781 22.7633 15.6705L22.7673 15.6665Z" fill="#613C92"/>
<path opacity="0.3" fill-rule="evenodd" clip-rule="evenodd" d="M26.4843 22.2527C26.4963 26.804 22.1188 30.526 17.0384 30.526H2.73708C0.945902 30.526 -0.22278 28.8353 0.580439 27.393L3.71701 21.7839C4.15075 22.0724 4.62064 22.3288 5.11461 22.5492C6.35157 23.102 7.74918 23.4146 9.22309 23.4266H9.24718C10.2873 23.4266 11.3315 23.4346 12.3797 23.4346C16.0826 23.4346 19.4681 21.5636 21.1268 18.5988L22.5525 16.0547L22.7734 15.6541C25.0224 17.1485 26.4843 19.5403 26.4883 22.2407L26.4843 22.2527Z" fill="#613C92"/>
<path d="M42.7422 28.5514C41.1077 28.5514 39.5414 28.3551 38.0474 27.9664C36.5534 27.5778 35.3566 27.085 34.457 26.4961L36.2723 22.5577C37.1719 23.0786 38.2201 23.5113 39.4209 23.8518C40.6177 24.1964 41.7984 24.3647 42.9591 24.3647C44.2402 24.3647 45.1479 24.2124 45.678 23.9039C46.2121 23.5954 46.4772 23.1707 46.4772 22.6259C46.4772 22.1771 46.2684 21.8406 45.8547 21.6162C45.4411 21.3919 44.8949 21.2196 44.2202 21.1034C43.5455 20.9872 42.7904 20.867 41.9631 20.7468C41.1318 20.6306 40.3085 20.4624 39.4932 20.25C38.6739 20.0377 37.9149 19.7372 37.2161 19.3446C36.5173 18.9559 35.959 18.4151 35.5454 17.73C35.1317 17.0449 34.9229 16.1594 34.9229 15.0697C34.9229 13.8637 35.2803 12.794 35.9912 11.8605C36.702 10.927 37.7101 10.1979 39.0153 9.67701C40.3205 9.15618 41.8948 8.89575 43.7463 8.89575C45.0756 8.89575 46.4089 9.044 47.7463 9.34047C49.0837 9.63695 50.2162 10.0456 51.1439 10.5624L49.2604 14.5008C48.3608 13.9799 47.4411 13.6153 46.5053 13.403C45.5696 13.1907 44.674 13.0825 43.8226 13.0825C42.5414 13.0825 41.6177 13.2468 41.0474 13.5793C40.4772 13.9118 40.196 14.3365 40.196 14.8573C40.196 15.3301 40.4089 15.6907 40.8346 15.9391C41.2603 16.1875 41.8185 16.3718 42.5053 16.488C43.192 16.6082 43.9511 16.7243 44.7824 16.8445C45.6137 16.9647 46.429 17.129 47.2363 17.3414C48.0435 17.5537 48.7945 17.8542 49.4933 18.2468C50.1921 18.6354 50.7503 19.1763 51.164 19.8614C51.5777 20.5465 51.7865 21.4359 51.7865 22.5217C51.7865 23.6795 51.4291 24.7172 50.7182 25.6267C50.0074 26.5361 48.9832 27.2533 47.6419 27.7741C46.3005 28.295 44.674 28.5554 42.7543 28.5554L42.7422 28.5514Z" fill="#613C92"/>
<path d="M63.194 28.5514C61.178 28.5514 59.3827 28.1267 57.8084 27.2733C56.2301 26.42 54.9931 25.2581 54.0935 23.7797C53.1939 22.3013 52.7441 20.6186 52.7441 18.7236C52.7441 16.8285 53.1939 15.1098 54.0935 13.6314C54.9931 12.153 56.2341 10.9951 57.8084 10.1538C59.3827 9.31643 61.182 8.89575 63.194 8.89575C65.2061 8.89575 67.0455 9.31643 68.6358 10.1538C70.2222 10.9951 71.4672 12.153 72.3708 13.6314C73.2704 15.1098 73.7202 16.8045 73.7202 18.7236C73.7202 20.6427 73.2704 22.3294 72.3708 23.7957C71.4712 25.2621 70.2262 26.42 68.6358 27.2733C67.0455 28.1267 65.2342 28.5514 63.194 28.5514ZM63.194 24.0121C64.1418 24.0121 64.9772 23.8037 65.7001 23.3911C66.423 22.9784 67.0053 22.3694 67.443 21.5641C67.8808 20.7588 68.1017 19.8133 68.1017 18.7276C68.1017 17.6418 67.8808 16.6683 67.443 15.891C67.0053 15.1097 66.423 14.5128 65.7001 14.1001C64.9772 13.6875 64.1539 13.4791 63.2302 13.4791C62.3065 13.4791 61.4751 13.6875 60.7402 14.1001C60.0053 14.5128 59.4189 15.1097 58.9812 15.891C58.5434 16.6723 58.3225 17.6178 58.3225 18.7276C58.3225 19.8374 58.5434 20.7628 58.9812 21.5641C59.4189 22.3694 60.0053 22.9784 60.7402 23.3911C61.4751 23.8037 62.2944 24.0121 63.194 24.0121Z" fill="#613C92"/>
<path d="M74.0703 13.8633V9.6085H87.3355V13.8633H74.0703ZM77.0222 28.2665V8.75513C77.0222 6.57963 77.6607 4.85285 78.9418 3.5748C80.223 2.29674 82.0463 1.65971 84.4198 1.65971C85.2029 1.65971 85.974 1.74385 86.7331 1.90811C87.4921 2.07238 88.1307 2.32078 88.6528 2.65332L87.1949 6.69582C86.8857 6.48348 86.5443 6.31922 86.1628 6.19903C85.7853 6.08284 85.3797 6.02274 84.9539 6.02274C84.1467 6.02274 83.5242 6.2471 83.0865 6.69582C82.6487 7.14454 82.4278 7.85368 82.4278 8.82324V10.5981L82.6045 12.9379V28.2625H77.0222V28.2665ZM93.2351 6.51954C92.191 6.51954 91.3516 6.22306 90.709 5.63412C90.0704 5.04116 89.7492 4.30797 89.7492 3.43457C89.7492 2.56116 90.0704 1.82799 90.709 1.23503C91.3476 0.642077 92.191 0.349609 93.2351 0.349609C94.2793 0.349609 95.0906 0.626049 95.7412 1.18295C96.3918 1.73984 96.7171 2.453 96.7171 3.33041C96.7171 4.25189 96.3958 5.01712 95.7572 5.61809C95.1187 6.21905 94.2753 6.52355 93.2311 6.52355L93.2351 6.51954ZM90.46 28.2665V9.17981H96.0062V28.2665H90.46Z" fill="#613C92"/>
<path d="M105.965 28.5514C104.495 28.5514 103.226 28.295 102.162 27.7902C101.093 27.2813 100.27 26.5882 99.6918 25.7148C99.1095 24.8414 98.8203 23.8598 98.8203 22.7701C98.8203 21.6803 99.0974 20.6707 99.6557 19.8093C100.214 18.9479 101.097 18.2789 102.306 17.8061C103.515 17.3333 105.101 17.097 107.069 17.097H112.118V20.2901H107.636C106.33 20.2901 105.435 20.5024 104.953 20.9271C104.467 21.3518 104.222 21.8847 104.222 22.5217C104.222 23.2308 104.499 23.7917 105.057 24.2084C105.616 24.6211 106.367 24.8294 107.314 24.8294C108.262 24.8294 109.11 24.6171 109.857 24.1924C110.604 23.7677 111.13 23.1146 111.439 22.2412L112.29 24.8294C111.889 26.0113 111.154 26.9288 110.085 27.5778C109.017 28.2269 107.644 28.5554 105.961 28.5554L105.965 28.5514ZM111.796 28.2669V24.5409L111.439 23.7236V17.0529C111.439 15.871 111.077 14.9495 110.355 14.2844C109.632 13.6234 108.523 13.2908 107.029 13.2908C106.009 13.2908 105.009 13.4511 104.025 13.7716C103.041 14.0921 102.194 14.5208 101.483 15.0657L99.5271 11.1995C100.571 10.4422 101.824 9.86932 103.298 9.48069C104.768 9.09206 106.262 8.89575 107.78 8.89575C110.696 8.89575 112.961 9.58086 114.571 10.9551C116.182 12.3253 116.989 14.4687 116.989 17.3774V28.2669H111.796Z" fill="#613C92"/>
<path d="M121.607 35.1495V9.46812H124.881V14.5403L124.668 18.9033L125.025 23.2663V35.1495H121.611H121.607ZM131.599 28.4787C130.033 28.4787 128.607 28.1181 127.314 27.397C126.021 26.6758 124.989 25.6061 124.222 24.1878C123.451 22.7695 123.065 20.9947 123.065 18.8673C123.065 16.7398 123.439 14.965 124.186 13.5467C124.933 12.1284 125.953 11.0627 127.242 10.3536C128.535 9.64442 129.985 9.28784 131.599 9.28784C133.447 9.28784 135.085 9.68849 136.507 10.4938C137.929 11.2991 139.053 12.4169 139.885 13.8472C140.716 15.2775 141.13 16.9522 141.13 18.8673C141.13 20.7823 140.716 22.461 139.885 23.9034C139.053 25.3457 137.929 26.4715 136.507 27.2728C135.085 28.0781 133.451 28.4787 131.599 28.4787ZM131.314 25.4979C132.523 25.4979 133.608 25.2255 134.567 24.6806C135.527 24.1357 136.286 23.3625 136.844 22.3569C137.403 21.3513 137.68 20.1894 137.68 18.8632C137.68 17.5371 137.403 16.3512 136.844 15.3696C136.286 14.388 135.527 13.6268 134.567 13.0819C133.608 12.5371 132.523 12.2646 131.314 12.2646C130.105 12.2646 129.057 12.5371 128.097 13.0819C127.138 13.6268 126.379 14.388 125.82 15.3696C125.262 16.3512 124.985 17.5171 124.985 18.8632C124.985 20.2094 125.262 21.3513 125.82 22.3569C126.379 23.3625 127.138 24.1357 128.097 24.6806C129.057 25.2255 130.13 25.4979 131.314 25.4979Z" fill="#613C92"/>
<path d="M152.013 28.479C150.402 28.479 148.985 28.1825 147.764 27.5935C146.543 27.0006 145.595 26.0991 144.92 24.8812C144.246 23.6632 143.908 22.1327 143.908 20.2858V9.46835H147.322V19.8971C147.322 21.7401 147.768 23.1263 148.655 24.0478C149.543 24.9693 150.796 25.4301 152.406 25.4301C153.591 25.4301 154.623 25.1897 155.499 24.7009C156.374 24.2161 157.053 23.507 157.527 22.5735C158.001 21.64 158.238 20.5101 158.238 19.184V9.46436H161.651V28.2666H158.414V23.1944L158.948 24.5406C158.33 25.7946 157.406 26.7642 156.173 27.4493C154.94 28.1344 153.555 28.479 152.013 28.479Z" fill="#613C92"/>
<path d="M166.383 28.2665V1.94409H169.796V28.2665H166.383Z" fill="#613C92"/>
<path d="M179.932 28.4788C178.365 28.4788 176.88 28.2665 175.47 27.8418C174.06 27.4171 172.952 26.8963 172.145 26.2793L173.566 23.5829C174.373 24.1278 175.369 24.5886 176.554 24.9652C177.739 25.3458 178.948 25.5341 180.181 25.5341C181.767 25.5341 182.912 25.3097 183.61 24.861C184.309 24.4123 184.659 23.7833 184.659 22.982C184.659 22.393 184.446 21.9283 184.02 21.5998C183.594 21.2672 183.028 21.0188 182.329 20.8546C181.631 20.6903 180.855 20.5421 180 20.4099C179.149 20.2816 178.293 20.1134 177.442 19.913C176.586 19.7127 175.807 19.4283 175.096 19.0597C174.386 18.6951 173.815 18.1863 173.39 17.5332C172.964 16.8842 172.751 16.0148 172.751 14.925C172.751 13.8353 173.072 12.7976 173.711 11.9442C174.349 11.0908 175.257 10.4378 176.43 9.97706C177.602 9.51631 178.996 9.28394 180.606 9.28394C181.839 9.28394 183.088 9.43218 184.357 9.72866C185.627 10.0251 186.663 10.4458 187.47 10.9867L186.012 13.683C185.161 13.1141 184.269 12.7255 183.345 12.5131C182.422 12.3008 181.498 12.1926 180.57 12.1926C179.076 12.1926 177.964 12.437 177.229 12.9218C176.494 13.4066 176.128 14.0276 176.128 14.7848C176.128 15.4218 176.349 15.9146 176.787 16.2552C177.225 16.5997 177.795 16.8641 178.494 17.0524C179.193 17.2407 179.968 17.401 180.823 17.5332C181.675 17.6654 182.53 17.8297 183.382 18.03C184.237 18.2303 185.012 18.5108 185.711 18.8634C186.41 19.2199 186.98 19.7167 187.418 20.3538C187.856 20.9908 188.076 21.8442 188.076 22.9099C188.076 24.0437 187.743 25.0253 187.08 25.8546C186.418 26.6839 185.482 27.325 184.273 27.7897C183.064 28.2505 181.619 28.4828 179.936 28.4828L179.932 28.4788Z" fill="#613C92"/>
<path d="M198.953 28.4788C196.937 28.4788 195.166 28.0662 193.636 27.2368C192.105 26.4075 190.921 25.2737 190.081 23.8313C189.238 22.389 188.82 20.7344 188.82 18.8634C188.82 16.9923 189.23 15.3417 190.045 13.8954C190.865 12.453 191.989 11.3232 193.423 10.5059C194.856 9.68859 196.475 9.28394 198.278 9.28394C200.081 9.28394 201.716 9.68458 203.114 10.4899C204.511 11.2952 205.608 12.425 206.403 13.8793C207.198 15.3337 207.596 17.0324 207.596 18.9715C207.596 19.1117 207.592 19.28 207.579 19.4683C207.567 19.6566 207.551 19.8369 207.527 20.0012H191.491V17.5533H205.752L204.367 18.4026C204.391 17.1967 204.142 16.1189 203.62 15.1734C203.098 14.2279 202.379 13.4867 201.467 12.9579C200.555 12.425 199.495 12.1606 198.286 12.1606C197.077 12.1606 196.045 12.425 195.122 12.9579C194.198 13.4907 193.475 14.2359 192.953 15.1934C192.431 16.151 192.17 17.2447 192.17 18.4747V19.0436C192.17 20.2977 192.459 21.4155 193.041 22.397C193.624 23.3786 194.435 24.1398 195.479 24.6847C196.523 25.2296 197.72 25.502 199.069 25.502C200.182 25.502 201.198 25.3137 202.11 24.9331C203.021 24.5565 203.82 23.9876 204.511 23.2304L206.395 25.4299C205.543 26.4235 204.479 27.1807 203.214 27.7016C201.945 28.2224 200.531 28.4828 198.965 28.4828L198.953 28.4788Z" fill="#613C92"/>
</svg>
